<svg width="20" height="20" viewBox="0 0 20 20" fill="none" xmlns="http://www.w3.org/2000/svg">
<path d="M16.6667 9.16585H18.3333C18.3333 4.89085 15.1058 1.66669 10.825 1.66669V3.33335C14.21 3.33335 16.6667 5.78585 16.6667 9.16585Z" fill="#75464A"/>
<path d="M10.8333 6.66666C12.5858 6.66666 13.3333 7.41416 13.3333 9.16666H15C15 6.47916 13.5208 5 10.8333 5V6.66666ZM13.685 11.2025C13.5249 11.057 13.3145 10.9793 13.0982 10.986C12.8819 10.9927 12.6767 11.0832 12.5258 11.2383L10.5317 13.2892C10.0517 13.1975 9.08667 12.8967 8.09333 11.9058C7.1 10.9117 6.79917 9.94416 6.71 9.4675L8.75917 7.4725C8.91451 7.32177 9.00511 7.11651 9.0118 6.90017C9.01849 6.68382 8.94074 6.47336 8.795 6.31333L5.71583 2.9275C5.57003 2.76696 5.3674 2.66958 5.15096 2.65605C4.93452 2.64251 4.72133 2.71388 4.55667 2.855L2.74833 4.40583C2.60426 4.55043 2.51826 4.74287 2.50667 4.94666C2.49417 5.155 2.25583 10.09 6.0825 13.9183C9.42083 17.2558 13.6025 17.5 14.7542 17.5C14.9225 17.5 15.0258 17.495 15.0533 17.4933C15.2571 17.4819 15.4494 17.3955 15.5933 17.2508L17.1433 15.4417C17.2846 15.2771 17.3561 15.064 17.3427 14.8475C17.3293 14.6311 17.2321 14.4284 17.0717 14.2825L13.685 11.2025Z" fill="#75464A"/>
</svg>
