<svg width="35" height="35" viewBox="0 0 35 35" fill="none" xmlns="http://www.w3.org/2000/svg">
<path d="M33.7695 16.8574C33.662 16.6676 33.5168 16.5017 33.3428 16.37C33.1688 16.2383 32.9698 16.1437 32.7578 16.0918C31.3291 15.7453 29.8441 15.6988 28.3965 15.9551C29.0117 13.248 28.6152 11.1289 28.2051 9.89844C28.0817 9.51128 27.819 9.18369 27.4679 8.9791C27.1169 8.77451 26.7024 8.70749 26.3047 8.79102C24.8943 9.11023 23.5608 9.70495 22.3809 10.541C21.5463 8.53958 20.203 6.79104 18.4844 5.46875C18.2004 5.25576 17.855 5.14063 17.5 5.14062C17.145 5.14062 16.7996 5.25576 16.5156 5.46875C14.797 6.79104 13.4537 8.53958 12.6191 10.541C11.4392 9.70495 10.1058 9.11023 8.69532 8.79102C8.29765 8.70749 7.88314 8.77451 7.53206 8.9791C7.18098 9.18369 6.91831 9.51128 6.79493 9.89844C6.38477 11.1289 5.98829 13.248 6.60352 15.9551C5.15592 15.6988 3.6709 15.7453 2.24219 16.0918C2.03025 16.1437 1.83117 16.2383 1.65718 16.37C1.48319 16.5017 1.33798 16.6676 1.23047 16.8574C1.01369 17.2392 0.95481 17.6906 1.06641 18.1152C1.53125 19.7559 2.95313 22.9004 7.25977 25.3887C11.5664 27.877 15.4356 27.8906 17.5 27.8906C19.5645 27.8906 23.4063 27.8906 27.7402 25.3887C32.0742 22.8867 33.4688 19.7559 33.9336 18.1152C34.0452 17.6906 33.9863 17.2392 33.7695 16.8574ZM26.5371 9.87109C26.6674 9.84061 26.8044 9.86024 26.9209 9.92609C27.0374 9.99194 27.1249 10.0992 27.166 10.2266C27.5625 11.457 27.959 13.6445 27.125 16.4609C27.1113 16.4883 27.1113 16.5156 27.0977 16.543C26.7699 17.6249 26.3107 18.6626 25.7305 19.6328C24.5607 21.6377 23.0038 23.3898 21.1504 24.7871L20.8086 25.0332C22.1895 23.2148 23.5156 20.4258 23.5156 16.4062C23.5294 14.7729 23.2801 13.1479 22.7773 11.5938C23.8936 10.7583 25.1755 10.171 26.5371 9.87109ZM17.1719 6.34375C17.2665 6.27275 17.3817 6.23438 17.5 6.23438C17.6183 6.23438 17.7335 6.27275 17.8281 6.34375C19.209 7.38281 22.4219 10.418 22.4219 16.4062C22.4219 19.5645 21.5469 22.2715 19.8379 24.4727C19.1812 25.3343 18.3921 26.0865 17.5 26.7012C16.6079 26.0865 15.8188 25.3343 15.1621 24.4727C13.4531 22.2715 12.5781 19.5645 12.5781 16.4062C12.5781 10.418 15.791 7.38281 17.1719 6.34375ZM7.83399 10.2266C7.87508 10.0992 7.96256 9.99194 8.07907 9.92609C8.19558 9.86024 8.33258 9.84061 8.4629 9.87109C9.82453 10.171 11.1064 10.7583 12.2227 11.5938C11.7199 13.1479 11.4706 14.7729 11.4844 16.4062C11.4844 20.4258 12.8106 23.2148 14.1914 25.0332L13.8496 24.7871C11.9962 23.3898 10.4393 21.6377 9.26954 19.6328C8.689 18.6579 8.22987 17.6157 7.90235 16.5293L7.875 16.4609C7.04102 13.6445 7.4375 11.457 7.83399 10.2266ZM2.11915 17.8145C2.10047 17.7459 2.09569 17.6743 2.10508 17.6039C2.11447 17.5334 2.13785 17.4656 2.17383 17.4043C2.24949 17.282 2.36559 17.1901 2.50196 17.1445C3.9588 16.8078 5.47275 16.8031 6.93164 17.1309C7.28626 18.1918 7.74897 19.2134 8.3125 20.1797C10.0762 23.2422 12.6465 25.4297 14.7246 26.6875C12.2838 26.4485 9.92365 25.6835 7.80664 24.4453C3.82813 22.1484 2.54297 19.3047 2.11915 17.8145ZM32.8809 17.8145C32.457 19.3047 31.1719 22.1484 27.1934 24.4453C25.0764 25.6835 22.7162 26.4485 20.2754 26.6875C22.3535 25.4297 24.9238 23.2422 26.6875 20.1797C27.251 19.2134 27.7138 18.1918 28.0684 17.1309C29.5273 16.8031 31.0412 16.8078 32.4981 17.1445C32.6344 17.1901 32.7505 17.282 32.8262 17.4043C32.8622 17.4656 32.8855 17.5334 32.8949 17.6039C32.9043 17.6743 32.8995 17.7459 32.8809 17.8145Z" fill="#3F3232"/>
</svg>
